<svg xmlns="http://www.w3.org/2000/svg" version="1.1" viewBox="0 0 1100 58">
<g stroke-width="2.00" fill="none" stroke-linecap="butt">
<path stroke="#bdbdc1" vector-effect="non-scaling-stroke" d="   M 46.25 19.39   A 0.39 0.39 0.0 0 1 46.64 19.00   L 71.13 19.00   A 0.39 0.39 0.0 0 1 71.52 19.39   L 71.49 44.14   A 0.39 0.39 0.0 0 0 71.87 44.53   L 80.85 44.69   A 0.39 0.39 0.0 0 0 81.25 44.30   L 81.25 18.54   A 0.39 0.39 0.0 0 0 81.14 18.27   L 72.73 9.86   A 0.39 0.39 0.0 0 0 72.46 9.75   L 1.89 9.75   A 0.39 0.39 0.0 0 0 1.50 10.14   L 1.50 44.39   A 0.39 0.39 0.0 0 0 1.89 44.78   L 10.87 44.66   A 0.39 0.39 0.0 0 0 11.26 44.27   L 11.23 19.39   A 0.39 0.39 0.0 0 1 11.62 19.00   L 35.86 19.00   A 0.39 0.39 0.0 0 1 36.25 19.39   L 36.25 44.37   A 0.39 0.39 0.0 0 0 36.64 44.76   L 45.86 44.74   A 0.39 0.39 0.0 0 0 46.25 44.35   L 46.25 19.39"/>
<path stroke="#bdbdc1" vector-effect="non-scaling-stroke" d="   M 147.77 19.26   A 0.48 0.48 0.0 0 1 148.25 19.74   L 148.25 44.17   A 0.48 0.48 0.0 0 0 148.73 44.65   L 157.51 44.75   A 0.48 0.48 0.0 0 0 157.99 44.27   L 158.00 18.57   A 0.48 0.48 0.0 0 0 157.86 18.23   L 149.49 9.89   A 0.48 0.48 0.0 0 0 149.15 9.75   L 89.23 9.75   A 0.48 0.48 0.0 0 0 88.75 10.23   L 88.75 44.21   A 0.48 0.48 0.0 0 0 89.23 44.69   L 97.77 44.68   A 0.48 0.48 0.0 0 0 98.25 44.20   L 98.25 19.72   A 0.48 0.48 0.0 0 1 98.73 19.24   L 147.77 19.26"/>
<path stroke="#bdbdc1" vector-effect="non-scaling-stroke" d="   M 174.25 34.76   L 174.25 19.50   A 0.50 0.50 0.0 0 1 174.75 19.00   L 232.12 19.00   A 0.63 0.63 0.0 0 0 232.75 18.37   L 232.75 10.37   A 0.63 0.62 0.0 0 0 232.12 9.75   L 173.68 9.75   A 1.38 1.36 21.8 0 0 172.70 10.16   L 164.91 18.03   A 1.48 1.43 67.8 0 0 164.50 19.05   L 164.50 35.56   A 1.38 1.36 -68.2 0 0 164.91 36.54   L 172.60 44.18   A 1.26 1.25 67.3 0 0 173.49 44.55   L 232.37 44.49   A 0.37 0.37 0.0 0 0 232.74 44.12   L 232.76 36.10   A 0.66 0.66 0.0 0 0 232.10 35.44   L 174.70 35.21   A 0.45 0.45 0.0 0 1 174.25 34.76"/>
<path stroke="#bdbdc1" vector-effect="non-scaling-stroke" d="   M 340.78 36.35   A 0.76 0.76 0.0 0 0 341.00 35.82   L 341.00 18.74   A 0.76 0.76 0.0 0 0 340.78 18.21   L 332.56 9.95   A 0.76 0.76 0.0 0 0 332.02 9.73   L 272.51 9.79   A 0.76 0.76 0.0 0 0 271.75 10.55   L 271.75 43.93   A 0.76 0.76 0.0 0 0 272.51 44.69   L 332.28 44.54   A 0.76 0.76 0.0 0 0 332.81 44.32   L 340.78 36.35"/>
<path stroke="#bdbdc1" vector-effect="non-scaling-stroke" d="   M 357.58 35.75   A 0.33 0.33 0.0 0 1 357.25 35.42   L 357.25 30.58   A 0.33 0.33 0.0 0 1 357.58 30.25   L 416.92 30.25   A 0.33 0.33 0.0 0 0 417.25 29.92   L 417.25 23.33   A 0.33 0.33 0.0 0 0 416.92 23.00   L 357.58 23.00   A 0.33 0.33 0.0 0 1 357.25 22.67   L 357.24 19.58   A 0.33 0.33 0.0 0 1 357.57 19.25   L 417.17 19.25   A 0.33 0.33 0.0 0 0 417.50 18.92   L 417.50 10.27   A 0.33 0.33 0.0 0 0 417.17 9.94   L 347.83 10.02   A 0.33 0.33 0.0 0 0 347.50 10.35   L 347.50 35.93   A 0.33 0.33 0.0 0 0 347.60 36.17   L 355.77 44.42   A 0.33 0.33 0.0 0 0 356.01 44.52   L 417.17 44.49   A 0.33 0.33 0.0 0 0 417.50 44.16   L 417.50 36.08   A 0.33 0.33 0.0 0 0 417.17 35.75   L 357.58 35.75"/>
<path stroke="#bdbdc1" vector-effect="non-scaling-stroke" d="   M 462.99 35.39   A 0.52 0.52 0.0 0 1 462.25 35.39   L 436.77 9.90   A 0.52 0.52 0.0 0 0 436.40 9.75   L 424.25 9.75   A 0.52 0.52 0.0 0 0 423.88 10.64   L 457.38 44.51   A 0.52 0.52 0.0 0 0 457.75 44.66   L 467.62 44.70   A 0.52 0.52 0.0 0 0 467.99 44.55   L 502.07 10.78   A 0.52 0.52 0.0 0 0 501.71 9.89   L 488.91 9.68   A 0.52 0.52 0.0 0 0 488.53 9.84   L 462.99 35.39"/>
<path stroke="#bdbdc1" vector-effect="non-scaling-stroke" d="   M 518.25 35.25   L 518.25 30.75   A 0.50 0.50 0.0 0 1 518.75 30.25   L 577.62 30.25   A 0.63 0.62 -0.0 0 0 578.25 29.63   L 578.25 23.63   A 0.63 0.62 -90.0 0 0 577.63 23.00   L 518.88 23.00   A 0.63 0.62 0.0 0 1 518.25 22.38   L 518.25 19.86   A 0.62 0.62 0.0 0 1 518.87 19.23   C 535.84 19.28 552.96 19.66 569.91 19.02   Q 573.51 18.88 577.23 19.37   A 1.13 1.13 0.0 0 0 578.50 18.25   L 578.50 10.64   A 0.61 0.61 0.0 0 0 577.89 10.03   L 509.01 9.80   A 0.51 0.50 -0.0 0 0 508.50 10.30   L 508.50 35.61   A 1.16 1.16 0.0 0 0 508.84 36.43   L 516.50 44.11   A 1.50 1.46 -21.9 0 0 517.55 44.54   L 577.85 44.48   A 0.65 0.65 0.0 0 0 578.50 43.83   L 578.50 36.38   A 0.62 0.62 0.0 0 0 577.88 35.76   L 518.75 35.75   A 0.50 0.50 0.0 0 1 518.25 35.25"/>
<path stroke="#bdbdc1" vector-effect="non-scaling-stroke" d="   M 594.65 35.51   A 0.40 0.40 0.0 0 1 594.25 35.11   L 594.25 10.12   A 0.40 0.40 0.0 0 0 593.85 9.72   L 584.90 9.82   A 0.40 0.40 0.0 0 0 584.50 10.22   L 584.50 44.10   A 0.40 0.40 0.0 0 0 584.90 44.50   L 638.85 44.50   A 0.40 0.40 0.0 0 0 639.25 44.10   L 639.25 35.89   A 0.40 0.40 0.0 0 0 638.85 35.49   L 594.65 35.51"/>
<path stroke="#bdbdc1" vector-effect="non-scaling-stroke" d="   M 645.76 19.26   L 645.76 35.29   A 1.39 1.38 -65.7 0 0 646.10 36.20   Q 648.58 39.12 653.06 43.68   C 654.55 45.21 655.26 44.51 656.96 44.50   Q 681.51 44.48 706.08 44.52   A 1.34 1.33 -66.9 0 0 707.01 44.14   L 714.63 36.45   A 1.28 1.26 67.9 0 0 715.00 35.55   L 715.00 18.90   A 1.30 1.28 22.9 0 0 714.62 17.99   L 706.68 10.07   A 1.37 1.34 66.5 0 0 705.70 9.67   Q 677.00 10.02 656.50 9.73   C 653.10 9.68 648.12 15.94 646.14 18.24   A 1.56 1.56 0.0 0 0 645.76 19.26"/>
<path stroke="#bdbdc1" vector-effect="non-scaling-stroke" d="   M 730.18 10.08   C 729.02 11.26 721.77 18.12 721.76 19.00   Q 721.72 35.85 721.78 52.70   A 0.54 0.54 0.0 0 0 722.32 53.24   L 731.25 53.25   A 0.50 0.49 -89.4 0 0 731.75 52.75   L 731.75 45.40   A 0.61 0.60 -90.0 0 1 732.35 44.79   L 782.11 44.52   A 1.25 1.23 21.6 0 0 782.96 44.16   L 790.62 36.50   A 1.30 1.28 -22.9 0 0 791.00 35.59   L 791.00 19.00   A 1.28 1.27 -67.3 0 0 790.64 18.11   L 783.28 10.62   A 1.59 1.57 71.9 0 0 782.39 10.16   C 781.72 10.06 780.58 9.64 780.03 9.65   Q 755.57 10.18 731.05 9.73   A 1.20 1.20 0.0 0 0 730.18 10.08"/>
<path stroke="#bdbdc1" vector-effect="non-scaling-stroke" d="   M 831.88 19.00   A 0.37 0.37 0.0 0 1 832.25 19.37   L 832.25 44.38   A 0.37 0.37 0.0 0 0 832.62 44.75   L 841.88 44.75   A 0.37 0.37 0.0 0 0 842.25 44.38   L 842.25 19.37   A 0.37 0.37 0.0 0 1 842.62 19.00   L 867.13 19.00   A 0.37 0.37 0.0 0 1 867.50 19.37   L 867.50 44.07   A 0.37 0.37 0.0 0 0 867.86 44.44   L 876.87 44.80   A 0.37 0.37 0.0 0 0 877.25 44.43   L 877.25 18.61   A 0.37 0.37 0.0 0 0 877.14 18.35   L 868.74 9.86   A 0.37 0.37 0.0 0 0 868.48 9.75   L 797.87 9.75   A 0.37 0.37 0.0 0 0 797.50 10.12   L 797.50 44.14   A 0.37 0.37 0.0 0 0 797.87 44.51   L 806.89 44.57   A 0.37 0.37 0.0 0 0 807.26 44.20   L 807.23 19.37   A 0.37 0.37 0.0 0 1 807.60 19.00   L 831.88 19.00"/>
<path stroke="#bdbdc1" vector-effect="non-scaling-stroke" d="   M 894.25 35.25   L 894.25 30.75   A 0.50 0.50 0.0 0 1 894.75 30.25   L 953.62 30.25   A 0.63 0.62 -0.0 0 0 954.25 29.63   L 954.25 23.63   A 0.63 0.62 -90.0 0 0 953.63 23.00   L 894.88 23.00   A 0.63 0.62 0.0 0 1 894.25 22.38   L 894.25 19.87   A 0.62 0.62 0.0 0 1 894.87 19.24   Q 918.05 19.28 941.21 19.22   C 944.70 19.21 949.02 18.79 953.35 19.40   A 1.00 1.00 0.0 0 0 954.50 18.40   L 954.50 10.59   A 0.63 0.63 0.0 0 0 953.87 9.96   Q 922.43 9.95 890.99 10.01   C 889.43 10.01 887.08 9.56 884.97 9.98   A 0.58 0.58 0.0 0 0 884.50 10.55   L 884.50 35.48   A 1.24 1.21 -67.2 0 0 884.83 36.32   Q 888.64 40.43 892.78 44.22   C 894.02 45.36 947.58 44.52 953.90 44.53   A 0.60 0.60 0.0 0 0 954.50 43.93   L 954.50 36.38   A 0.63 0.63 0.0 0 0 953.87 35.75   L 894.75 35.75   A 0.50 0.50 0.0 0 1 894.25 35.25"/>
<path stroke="#bdbdc1" vector-effect="non-scaling-stroke" d="   M 1020.25 19.75   L 1020.25 44.22   A 0.47 0.47 0.0 0 0 1020.72 44.69   L 1029.38 44.74   A 0.62 0.62 0.0 0 0 1030.00 44.12   L 1030.00 19.03   A 1.41 1.38 -67.2 0 0 1029.62 18.07   C 1027.82 16.18 1022.41 9.81 1019.92 9.79   Q 990.71 9.63 961.36 9.90   A 0.62 0.61 -0.5 0 0 960.75 10.51   L 960.75 44.10   A 0.55 0.55 0.0 0 0 961.29 44.65   L 969.16 44.68   A 1.09 1.09 0.0 0 0 970.25 43.59   L 970.25 19.84   A 0.60 0.60 0.0 0 1 970.85 19.24   L 1019.75 19.26   A 0.50 0.49 0.0 0 1 1020.25 19.75"/>
<path stroke="#bdbdc1" vector-effect="non-scaling-stroke" d="   M 1061.35 19.00   A 0.40 0.40 0.0 0 1 1061.75 19.40   L 1061.75 44.39   A 0.40 0.40 0.0 0 0 1062.16 44.79   L 1071.11 44.62   A 0.40 0.40 0.0 0 0 1071.50 44.22   L 1071.50 19.40   A 0.40 0.40 0.0 0 1 1071.90 19.00   L 1096.60 19.00   A 0.40 0.40 0.0 0 0 1097.00 18.60   L 1097.00 10.21   A 0.40 0.40 0.0 0 0 1096.60 9.81   L 1036.66 9.82   A 0.40 0.40 0.0 0 0 1036.26 10.22   L 1036.24 18.60   A 0.40 0.40 0.0 0 0 1036.64 19.00   L 1061.35 19.00"/>
<path stroke="#bdbdc1" vector-effect="non-scaling-stroke" d="   M 331.00 19.43   A 0.43 0.43 0.0 0 0 330.57 19.00   L 280.93 19.00   A 0.43 0.43 0.0 0 0 280.50 19.43   L 280.50 35.31   A 0.43 0.43 0.0 0 0 280.93 35.74   L 330.57 35.74   A 0.43 0.43 0.0 0 0 331.00 35.31   L 331.00 19.43"/>
<path stroke="#bdbdc1" vector-effect="non-scaling-stroke" d="   M 705.00 19.65   A 0.39 0.39 0.0 0 0 704.61 19.26   L 656.15 19.26   A 0.39 0.39 0.0 0 0 655.76 19.65   L 655.76 34.87   A 0.39 0.39 0.0 0 0 656.15 35.26   L 704.61 35.26   A 0.39 0.39 0.0 0 0 705.00 34.87   L 705.00 19.65"/>
<path stroke="#bdbdc1" vector-effect="non-scaling-stroke" d="   M 780.99 19.61   A 0.36 0.36 0.0 0 0 780.63 19.25   L 732.11 19.25   A 0.36 0.36 0.0 0 0 731.75 19.61   L 731.75 34.91   A 0.36 0.36 0.0 0 0 732.11 35.27   L 780.63 35.27   A 0.36 0.36 0.0 0 0 780.99 34.91   L 780.99 19.61"/>
</g>
<path fill="#ffffff" d="   M 0.00 0.00   L 1100.00 0.00   L 1100.00 58.00   L 0.00 58.00   L 0.00 0.00   Z   M 46.25 19.39   A 0.39 0.39 0.0 0 1 46.64 19.00   L 71.13 19.00   A 0.39 0.39 0.0 0 1 71.52 19.39   L 71.49 44.14   A 0.39 0.39 0.0 0 0 71.87 44.53   L 80.85 44.69   A 0.39 0.39 0.0 0 0 81.25 44.30   L 81.25 18.54   A 0.39 0.39 0.0 0 0 81.14 18.27   L 72.73 9.86   A 0.39 0.39 0.0 0 0 72.46 9.75   L 1.89 9.75   A 0.39 0.39 0.0 0 0 1.50 10.14   L 1.50 44.39   A 0.39 0.39 0.0 0 0 1.89 44.78   L 10.87 44.66   A 0.39 0.39 0.0 0 0 11.26 44.27   L 11.23 19.39   A 0.39 0.39 0.0 0 1 11.62 19.00   L 35.86 19.00   A 0.39 0.39 0.0 0 1 36.25 19.39   L 36.25 44.37   A 0.39 0.39 0.0 0 0 36.64 44.76   L 45.86 44.74   A 0.39 0.39 0.0 0 0 46.25 44.35   L 46.25 19.39   Z   M 147.77 19.26   A 0.48 0.48 0.0 0 1 148.25 19.74   L 148.25 44.17   A 0.48 0.48 0.0 0 0 148.73 44.65   L 157.51 44.75   A 0.48 0.48 0.0 0 0 157.99 44.27   L 158.00 18.57   A 0.48 0.48 0.0 0 0 157.86 18.23   L 149.49 9.89   A 0.48 0.48 0.0 0 0 149.15 9.75   L 89.23 9.75   A 0.48 0.48 0.0 0 0 88.75 10.23   L 88.75 44.21   A 0.48 0.48 0.0 0 0 89.23 44.69   L 97.77 44.68   A 0.48 0.48 0.0 0 0 98.25 44.20   L 98.25 19.72   A 0.48 0.48 0.0 0 1 98.73 19.24   L 147.77 19.26   Z   M 174.25 34.76   L 174.25 19.50   A 0.50 0.50 0.0 0 1 174.75 19.00   L 232.12 19.00   A 0.63 0.63 0.0 0 0 232.75 18.37   L 232.75 10.37   A 0.63 0.62 0.0 0 0 232.12 9.75   L 173.68 9.75   A 1.38 1.36 21.8 0 0 172.70 10.16   L 164.91 18.03   A 1.48 1.43 67.8 0 0 164.50 19.05   L 164.50 35.56   A 1.38 1.36 -68.2 0 0 164.91 36.54   L 172.60 44.18   A 1.26 1.25 67.3 0 0 173.49 44.55   L 232.37 44.49   A 0.37 0.37 0.0 0 0 232.74 44.12   L 232.76 36.10   A 0.66 0.66 0.0 0 0 232.10 35.44   L 174.70 35.21   A 0.45 0.45 0.0 0 1 174.25 34.76   Z   M 340.78 36.35   A 0.76 0.76 0.0 0 0 341.00 35.82   L 341.00 18.74   A 0.76 0.76 0.0 0 0 340.78 18.21   L 332.56 9.95   A 0.76 0.76 0.0 0 0 332.02 9.73   L 272.51 9.79   A 0.76 0.76 0.0 0 0 271.75 10.55   L 271.75 43.93   A 0.76 0.76 0.0 0 0 272.51 44.69   L 332.28 44.54   A 0.76 0.76 0.0 0 0 332.81 44.32   L 340.78 36.35   Z   M 357.58 35.75   A 0.33 0.33 0.0 0 1 357.25 35.42   L 357.25 30.58   A 0.33 0.33 0.0 0 1 357.58 30.25   L 416.92 30.25   A 0.33 0.33 0.0 0 0 417.25 29.92   L 417.25 23.33   A 0.33 0.33 0.0 0 0 416.92 23.00   L 357.58 23.00   A 0.33 0.33 0.0 0 1 357.25 22.67   L 357.24 19.58   A 0.33 0.33 0.0 0 1 357.57 19.25   L 417.17 19.25   A 0.33 0.33 0.0 0 0 417.50 18.92   L 417.50 10.27   A 0.33 0.33 0.0 0 0 417.17 9.94   L 347.83 10.02   A 0.33 0.33 0.0 0 0 347.50 10.35   L 347.50 35.93   A 0.33 0.33 0.0 0 0 347.60 36.17   L 355.77 44.42   A 0.33 0.33 0.0 0 0 356.01 44.52   L 417.17 44.49   A 0.33 0.33 0.0 0 0 417.50 44.16   L 417.50 36.08   A 0.33 0.33 0.0 0 0 417.17 35.75   L 357.58 35.75   Z   M 462.99 35.39   A 0.52 0.52 0.0 0 1 462.25 35.39   L 436.77 9.90   A 0.52 0.52 0.0 0 0 436.40 9.75   L 424.25 9.75   A 0.52 0.52 0.0 0 0 423.88 10.64   L 457.38 44.51   A 0.52 0.52 0.0 0 0 457.75 44.66   L 467.62 44.70   A 0.52 0.52 0.0 0 0 467.99 44.55   L 502.07 10.78   A 0.52 0.52 0.0 0 0 501.71 9.89   L 488.91 9.68   A 0.52 0.52 0.0 0 0 488.53 9.84   L 462.99 35.39   Z   M 518.25 35.25   L 518.25 30.75   A 0.50 0.50 0.0 0 1 518.75 30.25   L 577.62 30.25   A 0.63 0.62 -0.0 0 0 578.25 29.63   L 578.25 23.63   A 0.63 0.62 -90.0 0 0 577.63 23.00   L 518.88 23.00   A 0.63 0.62 0.0 0 1 518.25 22.38   L 518.25 19.86   A 0.62 0.62 0.0 0 1 518.87 19.23   C 535.84 19.28 552.96 19.66 569.91 19.02   Q 573.51 18.88 577.23 19.37   A 1.13 1.13 0.0 0 0 578.50 18.25   L 578.50 10.64   A 0.61 0.61 0.0 0 0 577.89 10.03   L 509.01 9.80   A 0.51 0.50 -0.0 0 0 508.50 10.30   L 508.50 35.61   A 1.16 1.16 0.0 0 0 508.84 36.43   L 516.50 44.11   A 1.50 1.46 -21.9 0 0 517.55 44.54   L 577.85 44.48   A 0.65 0.65 0.0 0 0 578.50 43.83   L 578.50 36.38   A 0.62 0.62 0.0 0 0 577.88 35.76   L 518.75 35.75   A 0.50 0.50 0.0 0 1 518.25 35.25   Z   M 594.65 35.51   A 0.40 0.40 0.0 0 1 594.25 35.11   L 594.25 10.12   A 0.40 0.40 0.0 0 0 593.85 9.72   L 584.90 9.82   A 0.40 0.40 0.0 0 0 584.50 10.22   L 584.50 44.10   A 0.40 0.40 0.0 0 0 584.90 44.50   L 638.85 44.50   A 0.40 0.40 0.0 0 0 639.25 44.10   L 639.25 35.89   A 0.40 0.40 0.0 0 0 638.85 35.49   L 594.65 35.51   Z   M 645.76 19.26   L 645.76 35.29   A 1.39 1.38 -65.7 0 0 646.10 36.20   Q 648.58 39.12 653.06 43.68   C 654.55 45.21 655.26 44.51 656.96 44.50   Q 681.51 44.48 706.08 44.52   A 1.34 1.33 -66.9 0 0 707.01 44.14   L 714.63 36.45   A 1.28 1.26 67.9 0 0 715.00 35.55   L 715.00 18.90   A 1.30 1.28 22.9 0 0 714.62 17.99   L 706.68 10.07   A 1.37 1.34 66.5 0 0 705.70 9.67   Q 677.00 10.02 656.50 9.73   C 653.10 9.68 648.12 15.94 646.14 18.24   A 1.56 1.56 0.0 0 0 645.76 19.26   Z   M 730.18 10.08   C 729.02 11.26 721.77 18.12 721.76 19.00   Q 721.72 35.85 721.78 52.70   A 0.54 0.54 0.0 0 0 722.32 53.24   L 731.25 53.25   A 0.50 0.49 -89.4 0 0 731.75 52.75   L 731.75 45.40   A 0.61 0.60 -90.0 0 1 732.35 44.79   L 782.11 44.52   A 1.25 1.23 21.6 0 0 782.96 44.16   L 790.62 36.50   A 1.30 1.28 -22.9 0 0 791.00 35.59   L 791.00 19.00   A 1.28 1.27 -67.3 0 0 790.64 18.11   L 783.28 10.62   A 1.59 1.57 71.9 0 0 782.39 10.16   C 781.72 10.06 780.58 9.64 780.03 9.65   Q 755.57 10.18 731.05 9.73   A 1.20 1.20 0.0 0 0 730.18 10.08   Z   M 831.88 19.00   A 0.37 0.37 0.0 0 1 832.25 19.37   L 832.25 44.38   A 0.37 0.37 0.0 0 0 832.62 44.75   L 841.88 44.75   A 0.37 0.37 0.0 0 0 842.25 44.38   L 842.25 19.37   A 0.37 0.37 0.0 0 1 842.62 19.00   L 867.13 19.00   A 0.37 0.37 0.0 0 1 867.50 19.37   L 867.50 44.07   A 0.37 0.37 0.0 0 0 867.86 44.44   L 876.87 44.80   A 0.37 0.37 0.0 0 0 877.25 44.43   L 877.25 18.61   A 0.37 0.37 0.0 0 0 877.14 18.35   L 868.74 9.86   A 0.37 0.37 0.0 0 0 868.48 9.75   L 797.87 9.75   A 0.37 0.37 0.0 0 0 797.50 10.12   L 797.50 44.14   A 0.37 0.37 0.0 0 0 797.87 44.51   L 806.89 44.57   A 0.37 0.37 0.0 0 0 807.26 44.20   L 807.23 19.37   A 0.37 0.37 0.0 0 1 807.60 19.00   L 831.88 19.00   Z   M 894.25 35.25   L 894.25 30.75   A 0.50 0.50 0.0 0 1 894.75 30.25   L 953.62 30.25   A 0.63 0.62 -0.0 0 0 954.25 29.63   L 954.25 23.63   A 0.63 0.62 -90.0 0 0 953.63 23.00   L 894.88 23.00   A 0.63 0.62 0.0 0 1 894.25 22.38   L 894.25 19.87   A 0.62 0.62 0.0 0 1 894.87 19.24   Q 918.05 19.28 941.21 19.22   C 944.70 19.21 949.02 18.79 953.35 19.40   A 1.00 1.00 0.0 0 0 954.50 18.40   L 954.50 10.59   A 0.63 0.63 0.0 0 0 953.87 9.96   Q 922.43 9.95 890.99 10.01   C 889.43 10.01 887.08 9.56 884.97 9.98   A 0.58 0.58 0.0 0 0 884.50 10.55   L 884.50 35.48   A 1.24 1.21 -67.2 0 0 884.83 36.32   Q 888.64 40.43 892.78 44.22   C 894.02 45.36 947.58 44.52 953.90 44.53   A 0.60 0.60 0.0 0 0 954.50 43.93   L 954.50 36.38   A 0.63 0.63 0.0 0 0 953.87 35.75   L 894.75 35.75   A 0.50 0.50 0.0 0 1 894.25 35.25   Z   M 1020.25 19.75   L 1020.25 44.22   A 0.47 0.47 0.0 0 0 1020.72 44.69   L 1029.38 44.74   A 0.62 0.62 0.0 0 0 1030.00 44.12   L 1030.00 19.03   A 1.41 1.38 -67.2 0 0 1029.62 18.07   C 1027.82 16.18 1022.41 9.81 1019.92 9.79   Q 990.71 9.63 961.36 9.90   A 0.62 0.61 -0.5 0 0 960.75 10.51   L 960.75 44.10   A 0.55 0.55 0.0 0 0 961.29 44.65   L 969.16 44.68   A 1.09 1.09 0.0 0 0 970.25 43.59   L 970.25 19.84   A 0.60 0.60 0.0 0 1 970.85 19.24   L 1019.75 19.26   A 0.50 0.49 0.0 0 1 1020.25 19.75   Z   M 1061.35 19.00   A 0.40 0.40 0.0 0 1 1061.75 19.40   L 1061.75 44.39   A 0.40 0.40 0.0 0 0 1062.16 44.79   L 1071.11 44.62   A 0.40 0.40 0.0 0 0 1071.50 44.22   L 1071.50 19.40   A 0.40 0.40 0.0 0 1 1071.90 19.00   L 1096.60 19.00   A 0.40 0.40 0.0 0 0 1097.00 18.60   L 1097.00 10.21   A 0.40 0.40 0.0 0 0 1096.60 9.81   L 1036.66 9.82   A 0.40 0.40 0.0 0 0 1036.26 10.22   L 1036.24 18.60   A 0.40 0.40 0.0 0 0 1036.64 19.00   L 1061.35 19.00   Z"/>
<path fill="#7b7b82" d="   M 46.25 19.39   L 46.25 44.35   A 0.39 0.39 0.0 0 1 45.86 44.74   L 36.64 44.76   A 0.39 0.39 0.0 0 1 36.25 44.37   L 36.25 19.39   A 0.39 0.39 0.0 0 0 35.86 19.00   L 11.62 19.00   A 0.39 0.39 0.0 0 0 11.23 19.39   L 11.26 44.27   A 0.39 0.39 0.0 0 1 10.87 44.66   L 1.89 44.78   A 0.39 0.39 0.0 0 1 1.50 44.39   L 1.50 10.14   A 0.39 0.39 0.0 0 1 1.89 9.75   L 72.46 9.75   A 0.39 0.39 0.0 0 1 72.73 9.86   L 81.14 18.27   A 0.39 0.39 0.0 0 1 81.25 18.54   L 81.25 44.30   A 0.39 0.39 0.0 0 1 80.85 44.69   L 71.87 44.53   A 0.39 0.39 0.0 0 1 71.49 44.14   L 71.52 19.39   A 0.39 0.39 0.0 0 0 71.13 19.00   L 46.64 19.00   A 0.39 0.39 0.0 0 0 46.25 19.39   Z"/>
<path fill="#7b7b82" d="   M 147.77 19.26   L 98.73 19.24   A 0.48 0.48 0.0 0 0 98.25 19.72   L 98.25 44.20   A 0.48 0.48 0.0 0 1 97.77 44.68   L 89.23 44.69   A 0.48 0.48 0.0 0 1 88.75 44.21   L 88.75 10.23   A 0.48 0.48 0.0 0 1 89.23 9.75   L 149.15 9.75   A 0.48 0.48 0.0 0 1 149.49 9.89   L 157.86 18.23   A 0.48 0.48 0.0 0 1 158.00 18.57   L 157.99 44.27   A 0.48 0.48 0.0 0 1 157.51 44.75   L 148.73 44.65   A 0.48 0.48 0.0 0 1 148.25 44.17   L 148.25 19.74   A 0.48 0.48 0.0 0 0 147.77 19.26   Z"/>
<path fill="#7b7b82" d="   M 174.70 35.21   L 232.10 35.44   A 0.66 0.66 0.0 0 1 232.76 36.10   L 232.74 44.12   A 0.37 0.37 0.0 0 1 232.37 44.49   L 173.49 44.55   A 1.26 1.25 67.3 0 1 172.60 44.18   L 164.91 36.54   A 1.38 1.36 -68.2 0 1 164.50 35.56   L 164.50 19.05   A 1.48 1.43 67.8 0 1 164.91 18.03   L 172.70 10.16   A 1.38 1.36 21.8 0 1 173.68 9.75   L 232.12 9.75   A 0.63 0.62 -0.0 0 1 232.75 10.37   L 232.75 18.37   A 0.63 0.63 0.0 0 1 232.12 19.00   L 174.75 19.00   A 0.50 0.50 0.0 0 0 174.25 19.50   L 174.25 34.76   A 0.45 0.45 0.0 0 0 174.70 35.21   Z"/>
<path fill="#7b7b82" d="   M 340.78 36.35   L 332.81 44.32   A 0.76 0.76 0.0 0 1 332.28 44.54   L 272.51 44.69   A 0.76 0.76 0.0 0 1 271.75 43.93   L 271.75 10.55   A 0.76 0.76 0.0 0 1 272.51 9.79   L 332.02 9.73   A 0.76 0.76 0.0 0 1 332.56 9.95   L 340.78 18.21   A 0.76 0.76 0.0 0 1 341.00 18.74   L 341.00 35.82   A 0.76 0.76 0.0 0 1 340.78 36.35   Z   M 331.00 19.43   A 0.43 0.43 0.0 0 0 330.57 19.00   L 280.93 19.00   A 0.43 0.43 0.0 0 0 280.50 19.43   L 280.50 35.31   A 0.43 0.43 0.0 0 0 280.93 35.74   L 330.57 35.74   A 0.43 0.43 0.0 0 0 331.00 35.31   L 331.00 19.43   Z"/>
<path fill="#7b7b82" d="   M 357.58 35.75   L 417.17 35.75   A 0.33 0.33 0.0 0 1 417.50 36.08   L 417.50 44.16   A 0.33 0.33 0.0 0 1 417.17 44.49   L 356.01 44.52   A 0.33 0.33 0.0 0 1 355.77 44.42   L 347.60 36.17   A 0.33 0.33 0.0 0 1 347.50 35.93   L 347.50 10.35   A 0.33 0.33 0.0 0 1 347.83 10.02   L 417.17 9.94   A 0.33 0.33 0.0 0 1 417.50 10.27   L 417.50 18.92   A 0.33 0.33 0.0 0 1 417.17 19.25   L 357.57 19.25   A 0.33 0.33 0.0 0 0 357.24 19.58   L 357.25 22.67   A 0.33 0.33 0.0 0 0 357.58 23.00   L 416.92 23.00   A 0.33 0.33 0.0 0 1 417.25 23.33   L 417.25 29.92   A 0.33 0.33 0.0 0 1 416.92 30.25   L 357.58 30.25   A 0.33 0.33 0.0 0 0 357.25 30.58   L 357.25 35.42   A 0.33 0.33 0.0 0 0 357.58 35.75   Z"/>
<path fill="#7b7b82" d="   M 462.99 35.39   L 488.53 9.84   A 0.52 0.52 0.0 0 1 488.91 9.68   L 501.71 9.89   A 0.52 0.52 0.0 0 1 502.07 10.78   L 467.99 44.55   A 0.52 0.52 0.0 0 1 467.62 44.70   L 457.75 44.66   A 0.52 0.52 0.0 0 1 457.38 44.51   L 423.88 10.64   A 0.52 0.52 0.0 0 1 424.25 9.75   L 436.40 9.75   A 0.52 0.52 0.0 0 1 436.77 9.90   L 462.25 35.39   A 0.52 0.52 0.0 0 0 462.99 35.39   Z"/>
<path fill="#7b7b82" d="   M 518.75 35.75   L 577.88 35.76   A 0.62 0.62 0.0 0 1 578.50 36.38   L 578.50 43.83   A 0.65 0.65 0.0 0 1 577.85 44.48   L 517.55 44.54   A 1.50 1.46 -21.9 0 1 516.50 44.11   L 508.84 36.43   A 1.16 1.16 0.0 0 1 508.50 35.61   L 508.50 10.30   A 0.51 0.50 -0.0 0 1 509.01 9.80   L 577.89 10.03   A 0.61 0.61 0.0 0 1 578.50 10.64   L 578.50 18.25   A 1.13 1.13 0.0 0 1 577.23 19.37   Q 573.51 18.88 569.91 19.02   C 552.96 19.66 535.84 19.28 518.87 19.23   A 0.62 0.62 0.0 0 0 518.25 19.86   L 518.25 22.38   A 0.63 0.62 0.0 0 0 518.88 23.00   L 577.63 23.00   A 0.63 0.62 90.0 0 1 578.25 23.63   L 578.25 29.63   A 0.63 0.62 -0.0 0 1 577.62 30.25   L 518.75 30.25   A 0.50 0.50 0.0 0 0 518.25 30.75   L 518.25 35.25   A 0.50 0.50 0.0 0 0 518.75 35.75   Z"/>
<path fill="#7b7b82" d="   M 594.65 35.51   L 638.85 35.49   A 0.40 0.40 0.0 0 1 639.25 35.89   L 639.25 44.10   A 0.40 0.40 0.0 0 1 638.85 44.50   L 584.90 44.50   A 0.40 0.40 0.0 0 1 584.50 44.10   L 584.50 10.22   A 0.40 0.40 0.0 0 1 584.90 9.82   L 593.85 9.72   A 0.40 0.40 0.0 0 1 594.25 10.12   L 594.25 35.11   A 0.40 0.40 0.0 0 0 594.65 35.51   Z"/>
<path fill="#7b7b82" d="   M 646.14 18.24   C 648.12 15.94 653.10 9.68 656.50 9.73   Q 677.00 10.02 705.70 9.67   A 1.37 1.34 66.5 0 1 706.68 10.07   L 714.62 17.99   A 1.30 1.28 22.9 0 1 715.00 18.90   L 715.00 35.55   A 1.28 1.26 67.9 0 1 714.63 36.45   L 707.01 44.14   A 1.34 1.33 -66.9 0 1 706.08 44.52   Q 681.51 44.48 656.96 44.50   C 655.26 44.51 654.55 45.21 653.06 43.68   Q 648.58 39.12 646.10 36.20   A 1.39 1.38 -65.7 0 1 645.76 35.29   L 645.76 19.26   A 1.56 1.56 0.0 0 1 646.14 18.24   Z   M 705.00 19.65   A 0.39 0.39 0.0 0 0 704.61 19.26   L 656.15 19.26   A 0.39 0.39 0.0 0 0 655.76 19.65   L 655.76 34.87   A 0.39 0.39 0.0 0 0 656.15 35.26   L 704.61 35.26   A 0.39 0.39 0.0 0 0 705.00 34.87   L 705.00 19.65   Z"/>
<path fill="#7b7b82" d="   M 721.76 19.00   C 721.77 18.12 729.02 11.26 730.18 10.08   A 1.20 1.20 0.0 0 1 731.05 9.73   Q 755.57 10.18 780.03 9.65   C 780.58 9.64 781.72 10.06 782.39 10.16   A 1.59 1.57 71.9 0 1 783.28 10.62   L 790.64 18.11   A 1.28 1.27 -67.3 0 1 791.00 19.00   L 791.00 35.59   A 1.30 1.28 -22.9 0 1 790.62 36.50   L 782.96 44.16   A 1.25 1.23 21.6 0 1 782.11 44.52   L 732.35 44.79   A 0.61 0.60 90.0 0 0 731.75 45.40   L 731.75 52.75   A 0.50 0.49 -89.4 0 1 731.25 53.25   L 722.32 53.24   A 0.54 0.54 0.0 0 1 721.78 52.70   Q 721.72 35.85 721.76 19.00   Z   M 780.99 19.61   A 0.36 0.36 0.0 0 0 780.63 19.25   L 732.11 19.25   A 0.36 0.36 0.0 0 0 731.75 19.61   L 731.75 34.91   A 0.36 0.36 0.0 0 0 732.11 35.27   L 780.63 35.27   A 0.36 0.36 0.0 0 0 780.99 34.91   L 780.99 19.61   Z"/>
<path fill="#7b7b82" d="   M 831.88 19.00   L 807.60 19.00   A 0.37 0.37 0.0 0 0 807.23 19.37   L 807.26 44.20   A 0.37 0.37 0.0 0 1 806.89 44.57   L 797.87 44.51   A 0.37 0.37 0.0 0 1 797.50 44.14   L 797.50 10.12   A 0.37 0.37 0.0 0 1 797.87 9.75   L 868.48 9.75   A 0.37 0.37 0.0 0 1 868.74 9.86   L 877.14 18.35   A 0.37 0.37 0.0 0 1 877.25 18.61   L 877.25 44.43   A 0.37 0.37 0.0 0 1 876.87 44.80   L 867.86 44.44   A 0.37 0.37 0.0 0 1 867.50 44.07   L 867.50 19.37   A 0.37 0.37 0.0 0 0 867.13 19.00   L 842.62 19.00   A 0.37 0.37 0.0 0 0 842.25 19.37   L 842.25 44.38   A 0.37 0.37 0.0 0 1 841.88 44.75   L 832.62 44.75   A 0.37 0.37 0.0 0 1 832.25 44.38   L 832.25 19.37   A 0.37 0.37 0.0 0 0 831.88 19.00   Z"/>
<path fill="#7b7b82" d="   M 894.75 35.75   L 953.87 35.75   A 0.63 0.63 0.0 0 1 954.50 36.38   L 954.50 43.93   A 0.60 0.60 0.0 0 1 953.90 44.53   C 947.58 44.52 894.02 45.36 892.78 44.22   Q 888.64 40.43 884.83 36.32   A 1.24 1.21 -67.2 0 1 884.50 35.48   L 884.50 10.55   A 0.58 0.58 0.0 0 1 884.97 9.98   C 887.08 9.56 889.43 10.01 890.99 10.01   Q 922.43 9.95 953.87 9.96   A 0.63 0.63 0.0 0 1 954.50 10.59   L 954.50 18.40   A 1.00 1.00 0.0 0 1 953.35 19.40   C 949.02 18.79 944.70 19.21 941.21 19.22   Q 918.05 19.28 894.87 19.24   A 0.62 0.62 0.0 0 0 894.25 19.87   L 894.25 22.38   A 0.63 0.62 0.0 0 0 894.88 23.00   L 953.63 23.00   A 0.63 0.62 90.0 0 1 954.25 23.63   L 954.25 29.63   A 0.63 0.62 -0.0 0 1 953.62 30.25   L 894.75 30.25   A 0.50 0.50 0.0 0 0 894.25 30.75   L 894.25 35.25   A 0.50 0.50 0.0 0 0 894.75 35.75   Z"/>
<path fill="#7b7b82" d="   M 1019.75 19.26   L 970.85 19.24   A 0.60 0.60 0.0 0 0 970.25 19.84   L 970.25 43.59   A 1.09 1.09 0.0 0 1 969.16 44.68   L 961.29 44.65   A 0.55 0.55 0.0 0 1 960.75 44.10   L 960.75 10.51   A 0.62 0.61 -0.5 0 1 961.36 9.90   Q 990.71 9.63 1019.92 9.79   C 1022.41 9.81 1027.82 16.18 1029.62 18.07   A 1.41 1.38 -67.2 0 1 1030.00 19.03   L 1030.00 44.12   A 0.62 0.62 0.0 0 1 1029.38 44.74   L 1020.72 44.69   A 0.47 0.47 0.0 0 1 1020.25 44.22   L 1020.25 19.75   A 0.50 0.49 0.0 0 0 1019.75 19.26   Z"/>
<path fill="#7b7b82" d="   M 1061.35 19.00   L 1036.64 19.00   A 0.40 0.40 0.0 0 1 1036.24 18.60   L 1036.26 10.22   A 0.40 0.40 0.0 0 1 1036.66 9.82   L 1096.60 9.81   A 0.40 0.40 0.0 0 1 1097.00 10.21   L 1097.00 18.60   A 0.40 0.40 0.0 0 1 1096.60 19.00   L 1071.90 19.00   A 0.40 0.40 0.0 0 0 1071.50 19.40   L 1071.50 44.22   A 0.40 0.40 0.0 0 1 1071.11 44.62   L 1062.16 44.79   A 0.40 0.40 0.0 0 1 1061.75 44.39   L 1061.75 19.40   A 0.40 0.40 0.0 0 0 1061.35 19.00   Z"/>
<rect fill="#ffffff" x="280.50" y="19.00" width="50.50" height="16.74" rx="0.43"/>
<rect fill="#ffffff" x="655.76" y="19.26" width="49.24" height="16.00" rx="0.39"/>
<rect fill="#ffffff" x="731.75" y="19.25" width="49.24" height="16.02" rx="0.36"/>
</svg>